<svg width="106" height="48" fill="none" xmlns="http://www.w3.org/2000/svg"><path d="M14.513 37.497c-2.735 0-5.167-.444-7.298-1.331-2.119-.9-3.782-2.125-4.99-3.676-1.207-1.55-1.81-3.308-1.81-5.273 0-1.515.343-2.906 1.03-4.173a9.266 9.266 0 0 1 2.84-3.178 9.366 9.366 0 0 1 4.013-1.634v-.248c-1.941-.391-3.515-1.332-4.723-2.824-1.207-1.503-1.81-3.249-1.81-5.237 0-1.883.55-3.557 1.65-5.025 1.101-1.48 2.61-2.64 4.528-3.48 1.93-.853 4.12-1.279 6.57-1.279s4.634.426 6.552 1.279c1.93.852 3.444 2.018 4.545 3.497 1.1 1.468 1.657 3.137 1.67 5.008-.013 2-.628 3.746-1.848 5.238-1.219 1.491-2.781 2.432-4.687 2.823v.248a9.215 9.215 0 0 1 3.96 1.634 9.266 9.266 0 0 1 2.84 3.178c.71 1.267 1.072 2.657 1.084 4.173-.012 1.965-.622 3.722-1.83 5.273-1.207 1.55-2.876 2.776-5.006 3.675-2.12.888-4.546 1.332-7.28 1.332Zm0-5.646c1.219 0 2.284-.22 3.196-.657.911-.45 1.622-1.065 2.13-1.847.521-.793.782-1.704.782-2.734 0-1.054-.267-1.983-.8-2.788a5.491 5.491 0 0 0-2.166-1.917c-.91-.474-1.959-.71-3.142-.71-1.172 0-2.22.236-3.143.71-.923.461-1.651 1.1-2.184 1.917-.52.805-.781 1.734-.781 2.788 0 1.03.254 1.941.763 2.734.51.782 1.226 1.397 2.149 1.847.923.438 1.988.657 3.196.657Zm0-16.247c1.018 0 1.923-.207 2.716-.621a4.68 4.68 0 0 0 1.865-1.722c.45-.734.674-1.58.674-2.54 0-.946-.224-1.775-.674-2.485a4.624 4.624 0 0 0-1.847-1.687c-.781-.414-1.692-.621-2.734-.621-1.03 0-1.941.207-2.735.621a4.596 4.596 0 0 0-1.864 1.687c-.438.71-.657 1.539-.657 2.486 0 .958.225 1.805.675 2.539a4.678 4.678 0 0 0 1.864 1.722c.793.414 1.699.621 2.717.621Zm51.571 21.858c-1.172 0-2.178-.415-3.018-1.243-.829-.84-1.243-1.847-1.243-3.019 0-1.16.414-2.154 1.243-2.983.84-.828 1.846-1.243 3.018-1.243 1.136 0 2.13.415 2.983 1.243.852.829 1.279 1.823 1.279 2.983 0 .781-.202 1.498-.604 2.149a4.592 4.592 0 0 1-1.545 1.545 4.068 4.068 0 0 1-2.113.568ZM84.12.636V37h-7.563V.636h7.564Zm20.566 9.091v5.682H88.261V9.727h16.424ZM91.99 3.193h7.564V28.62c0 .699.106 1.243.32 1.634.212.379.508.645.887.799.391.154.84.23 1.349.23.356 0 .711-.029 1.066-.088.355-.071.627-.124.817-.16l1.189 5.629c-.379.118-.911.254-1.598.408-.686.166-1.521.266-2.503.302-1.823.07-3.421-.172-4.794-.728-1.362-.556-2.421-1.42-3.179-2.592-.757-1.172-1.13-2.652-1.118-4.44V3.194Z" fill="#000"/><path d="M38.745 47.227c-.959 0-1.859-.077-2.699-.23-.829-.143-1.515-.326-2.06-.551l1.705-5.646c.888.272 1.687.42 2.397.444.722.023 1.343-.142 1.864-.498.533-.355.965-.958 1.296-1.81l.444-1.155L31.91 9.727h7.955l5.646 20.029h.284l5.7-20.029H59.5l-10.6 30.22c-.509 1.468-1.201 2.747-2.077 3.836-.864 1.1-1.96 1.947-3.285 2.539-1.326.603-2.924.905-4.794.905Z" fill="#007BFF"/></svg>